<?xml version="1.0" encoding="UTF-8"?><svg id="Layer_1" xmlns="http://www.w3.org/2000/svg" width="1000" height="282.058" viewBox="0 0 1000 282.058"><defs><style>.cls-1{fill:#0064a7;}</style></defs><path class="cls-1" d="M106.005.032v263.74c-.096,8.336-7.533,18.258-24.785,18.286H24.785c-17.251-.028-24.693-9.95-24.785-18.286v-95.852h36.42c-.012,39.787-.02,70.935-.02,70.967.068,8.688,3.319,10.813,16.6,10.889,13.285-.076,16.536-2.201,16.604-10.889,0-.084-.06-238.856-.06-238.856,0,0,36.364-.072,36.46,0M174.344,249.405c-13.189,0-14.012-2.321-14.06-20.307,0-.451-.004-13.673-.004-14.1h.04c.24-14.144,1.945-16.089,14.024-16.089h49.889v-31.391h-49.889c-13.189,0-14.012-2.321-14.06-20.307,0-.563-.004-13.784-.004-14.1h.012c.112-16.369,1.306-18.538,14.052-18.538h49.889V.032h-76.431c-17.251.028-24.689,9.95-24.781,18.286v245.454c.092,8.336,7.529,18.258,24.781,18.286h76.431v-32.654h-49.889ZM343.938,18.318v245.454c-.096,8.336-7.533,18.258-24.785,18.286h-51.215c-17.255-.028-24.693-9.95-24.785-18.286V18.318c.092-8.336,7.529-18.258,24.785-18.286h51.215c17.251.028,24.689,9.95,24.785,18.286M306.444,239.167s-.008-31.184-.024-57.35c.016-26.163.024-57.346.024-57.346,0,0,.451-10.237-12.898-10.237s-12.898,10.237-12.898,10.237c0,0,.008,31.184.024,57.346-.016,26.167-.024,57.35-.024,57.35,0,0-.451,10.237,12.898,10.237s12.898-10.237,12.898-10.237M464.686,18.318v162.301c-.092,8.34-7.533,18.262-24.785,18.29h-41.185v83.15h-36.472V.032h77.657c17.251.028,24.693,9.95,24.785,18.286M428.342,125.329c0-2.409-.372-10.757-9.854-10.757l-19.852-.036v52.981l19.852-.036c9.483,0,9.854-8.348,9.854-10.753v-31.399ZM546.142,198.909h-33.612l-7.314,83.15h-36.44s23.015-263.744,23.367-265.666c.579-3.152,3.894-16.361,26.33-16.361h21.725c22.436,0,25.751,13.209,26.331,16.361.352,1.921,23.367,265.666,23.367,265.666h-36.44l-7.314-83.15ZM543.382,167.517l-3.108-35.334-1.043-12.115c-.559-5.085-4.845-5.464-9.363-5.492v-.004c-.18,0-.355,0-.531.004-.18-.004-.355-.004-.535-.004v.004c-4.517.028-8.803.407-9.363,5.492l-1.026,11.951-3.124,35.498h28.092ZM717.614,281.611h-37.003s-3.215-50.145-5.616-67.803c-.727-5.344-5.085-9.638-8.887-11.639-6.722-3.559-20.351-3.439-25.22-3.271v83.162h-36.472V.032h79.403c17.251.028,24.693,9.95,24.785,18.286v148.852c-.056,5.069-2.816,10.717-8.855,14.376l-.012.008c-.987.659-5.053,2.836-2.165,4.873,5.021,3.547,8.32,8.971,9.822,14.008,3.822,12.858,10.221,81.176,10.221,81.176M670.577,125.329c0-2.409-.368-10.757-9.854-10.757l-19.848-.036v52.981l19.848-.036c9.486,0,9.854-8.348,9.854-10.753v-31.399ZM831.783,18.318v245.454c-.092,8.336-7.533,18.258-24.785,18.286h-76.076V.032h76.076c17.251.028,24.693,9.95,24.785,18.286M800.856,125.329c0-2.409-.367-10.757-9.85-10.757l-26.271-.036v134.812l26.271-.036c9.483,0,9.85-8.348,9.85-10.757v-113.227ZM911.079.032v167.485l-19.852-.036c-9.483,0-9.85-8.348-9.85-10.753V.032h-36.48v180.587c.092,8.34,7.533,18.262,24.785,18.29h41.417v44.257c-.028,2.844-2.568,6.227-8.452,6.239h-27.521v32.654h47.652c17.252-.028,24.689-9.95,24.781-18.286V.032h-36.48ZM1000,198.909V.064c-.092-.072-36.46,0-36.46,0l.06,198.845h36.4ZM1000,242.646v-32.669c-.092-.012-36.46,0-36.46,0l.06,32.669h36.4Z"/></svg>